<svg version="1.2" xmlns="http://www.w3.org/2000/svg" viewBox="0 0 211 261" width="211" height="261">
	<style>
		.s0 { fill: #f8ad06 } 
		.s1 { fill: #fefefe } 
		.s2 { fill: #f6ac06 } 
		.s3 { fill: #e9a306 } 
	</style>
	<path class="s0" d="m76.65 201.99c-0.16 4.32-0.46 8.63-0.43 12.94 0.03 6.01 2.38 11.29 7.31 14.57 5.58 3.72 11.75 6.54 17.81 9.83-2.72 0.16-5.8 0.51-8.87 0.47-11.95-0.15-23.91-0.29-35.85-0.69-10.93-0.36-19.05-9.24-19.14-20.83-0.11-13.79-0.03-27.59 0.04-42.23 0.05-7.94 0.03-15.03 0.01-22.58 0.01-2.29 0.01-4.12 0.01-5.95 0.01-16.93 10-26.9 26.94-26.99 14.97-0.07 29.93-0.23 44.9-0.37 6.49-0.06 13.02 0.31 19.45-0.3 13.13-1.26 23.85-6.74 28.28-20.07 4.37-13.13 2.41-25.41-7.91-35.32-7.46-7.16-17.23-8.29-26.94-8.4-19.63-0.23-39.27-0.02-58.9-0.12-3.12-0.02-6.23-0.74-9.21-1.44 1.52-1.45 2.83-2.72 4.31-3.73 20.05-13.72 41.57-18.16 65.52-12.04 14.22 3.64 26.55 10.51 36.26 20.66 15.64 16.34 24.31 36.26 22.63 59.48-0.47 6.47 0.22 13.54-5.18 19.11-13.62 11.11-29.16 15.67-46.13 15.81-16.49 0.14-32.99 0.03-49.49 0.03-1.75 0-3.5 0-5.6 0 0 11.86 0 23-0.07 34.6 0.03 4.83 0.14 9.2 0.25 13.56z"/>
	<path class="s1" d="m37.53 153.93c0.02 7.09 0.04 14.18-0.06 21.65-3.93-4.14-8.32-8.3-11.46-13.25-11.23-17.71-14.99-37.5-12.8-58 2.34-21.88 11.78-40.81 27.97-56.08 0.35-0.33 0.58-0.78 1.26-1.36 0.69-0.2 1.11-0.07 1.28-0.22 12.09-10.88 26.18-17.79 41.98-21.37 2.12-0.48 4.18-1.23 6.26-1.85 7.74-0.11 15.48-0.21 23.86 0.16 1.41 0.77 2.16 1.2 2.96 1.34 36.3 6.56 60.39 27.48 72.1 62.26 2.73 8.1 3.24 16.95 4.77 25.45 0.73 13.17-1.83 25.8-6.92 37.86-2.06 4.87-5.22 9.26-7.49 14.05-0.66 1.41-0.54 3.72 0.17 5.14 4.21 8.5 8.61 16.91 13.13 25.24 1.84 3.37 2.55 7.12-0.59 9.21-2.19 1.46-6.26 1.64-8.86 0.68-9.6-3.57-18.89-7.97-28.42-11.75-1.59-0.63-4.12-0.37-5.63 0.5-10.57 6.12-21.72 10.1-33.95 11.55-13.48 1.6-26.66 1.44-40.02-3.12-0.53-4.39-0.64-8.76-0.31-13.57 6.77 1.23 13.03 3.81 19.46 4.37 18.49 1.61 35.88-2.24 51.38-12.92 3.63-2.51 7.16-2.44 11.01-0.69 5.28 2.4 10.64 4.63 16.99 7.37-3.23-5.77-6.3-10.22-8.22-15.12-1.13-2.88-1.49-6.95-0.31-9.66 2.8-6.43 6.84-12.3 10.11-18.53 0.81-1.54 0.58-3.61 0.82-5.44 5.09-5.41 4.4-12.48 4.87-18.95 1.68-23.22-6.99-43.14-22.63-59.48-9.71-10.15-22.04-17.02-36.26-20.66-23.95-6.12-45.47-1.68-65.52 12.04-1.48 1.01-2.79 2.28-4.63 3.87-9.93 9.31-17.88 19.21-22.53 31.57-7.37 19.53-7.53 38.92 0.66 58.19 1.43 3.36 3.69 6.36 5.57 9.52z"/>
	<path class="s2" d="m195.8 112.33c-1.68-8.17-2.19-17.02-4.92-25.12-11.71-34.78-35.8-55.7-72.1-62.26-0.8-0.14-1.55-0.57-2.52-1.16 13.96-0.55 28.04-0.27 41.71 4.16 24.68 8 42.32 31.69 41.85 57.65-0.16 8.82-2.52 17.6-4.02 26.73z"/>
	<path class="s3" d="m91.5 23.43c-1.62 0.64-3.68 1.39-5.8 1.87-15.8 3.58-29.89 10.49-41.98 21.37-0.17 0.15-0.59 0.02-1.19-0.15-5.3-6.91-5.72-14.52-4.77-23.11 17.84 0 35.56 0 53.74 0.02z"/>
</svg>